<svg xmlns="http://www.w3.org/2000/svg" width="32" height="32"><g fill="#FFF"><path d="M30.171 31.058H.887A.887.887 0 0 1 0 30.171V.888C0 .398.397 0 .887 0h29.284c.49 0 .887.398.887.888v29.283c0 .49-.397.887-.887.887zM1.775 29.285h27.509V1.775H1.775v27.51z"/><path d="M.887 31.058a.888.888 0 0 1-.66-1.48l8.874-9.88a.892.892 0 0 1 1.268-.055l2.308 2.166 6.991-6.912a.888.888 0 0 1 1.218-.027l9.88 8.903a.884.884 0 0 1 .293.659v5.738c0 .49-.397.887-.887.887h-9.88a.888.888 0 0 1-.607-.24l-9.87-9.257-8.268 9.204a.884.884 0 0 1-.66.294zm19.755-1.773h8.642v-4.457L20.32 16.75l-6.348 6.275 6.67 6.26zM10.028 15.796a4.265 4.265 0 0 1-4.26-4.26 4.265 4.265 0 0 1 4.26-4.26 4.264 4.264 0 0 1 4.259 4.26 4.265 4.265 0 0 1-4.259 4.26zm0-6.744a2.487 2.487 0 0 0-2.485 2.484 2.488 2.488 0 0 0 2.485 2.484 2.487 2.487 0 0 0 2.484-2.484 2.487 2.487 0 0 0-2.484-2.484z"/></g></svg>