<svg width="204" height="18" xmlns="http://www.w3.org/2000/svg"><g fill-rule="evenodd"><text font-family="TransgenderGrotesque-Book, Transgender Grotesque" font-size="12" font-style="expanded" font-weight="300"><tspan x="30.324" y="14">Загрузить другое фото</tspan></text><path d="M16.747 13.77a.634.634 0 0 0-.898.125c-.04.055-.083.109-.126.162-.643.799-1.508 1.447-2.576 1.929a.522.522 0 0 0-.016.007c-1.685.817-3.657.929-5.548.316-1.66-.55-3.012-1.612-4.016-3.159a7.701 7.701 0 0 1-1.164-3.925l-.001-.102h.786c.295 0 .443-.363.234-.575l-1.427-1.45a.328.328 0 0 0-.47 0L.099 8.549c-.21.212-.061.575.234.575h.787a8.99 8.99 0 0 0 1.366 4.723l.008.013c1.168 1.803 2.747 3.044 4.697 3.688a9.16 9.16 0 0 0 2.823.453 8.394 8.394 0 0 0 3.662-.829c1.335-.604 2.41-1.441 3.194-2.49a.657.657 0 0 0-.122-.91zm2.921-4.869h-.785a8.951 8.951 0 0 0-1.206-4.486 8.966 8.966 0 0 0-2.754-2.932A8.83 8.83 0 0 0 11.102.065a8.841 8.841 0 0 0-4.44.602 8.9 8.9 0 0 0-3.52 2.641.645.645 0 0 0 .095.905c.275.223.677.18.9-.096a7.663 7.663 0 0 1 3.011-2.26 7.55 7.55 0 0 1 7.067.698 7.676 7.676 0 0 1 2.359 2.51 7.654 7.654 0 0 1 1.03 3.836h-.785a.333.333 0 0 0-.234.569l1.425 1.432a.33.33 0 0 0 .468 0l1.424-1.432a.333.333 0 0 0-.234-.569z" fill-rule="nonzero"/></g></svg>