<svg xmlns="http://www.w3.org/2000/svg" viewBox="0 0 21.9 18.7"><path d="M16.7 13.8c-.3-.2-.7-.2-.9.1 0 .1-.1.1-.1.2-.6.8-1.5 1.4-2.6 1.9-1.7.8-3.7.9-5.5.3-1.7-.5-3-1.6-4-3.2-.7-1.2-1.1-2.5-1.2-3.9v-.1h.8c.3 0 .4-.4.2-.6L2 7.1c-.1-.1-.3-.1-.5 0L.1 8.5c-.2.3-.1.6.2.6h.8c0 1.7.5 3.3 1.4 4.7 1.2 1.8 2.7 3 4.7 3.7.9.3 1.9.5 2.8.5 1.3 0 2.5-.3 3.7-.8 1.3-.6 2.4-1.4 3.2-2.5.2-.3.1-.7-.2-.9zm3-4.9h-.8v-.5c-.1-1.4-.5-2.8-1.2-4-.7-1.2-1.7-2.2-2.8-2.9C13.8.7 12.4.2 11.1.1c-1.5-.2-3 0-4.4.6-1.4.5-2.6 1.4-3.6 2.6-.2.3-.1.7.1.9.3.2.7.2.9-.1 0-.1.1-.1.1-.2.9-.9 1.8-1.6 2.9-2 1.2-.5 2.5-.7 3.8-.5 1.2.1 2.3.6 3.3 1.2s1.8 1.5 2.4 2.5c.6 1 .9 2.2 1 3.4v.4h-.8c-.3 0-.4.4-.2.6l1.4 1.4c.1.1.3.1.5 0l1.4-1.4c.2-.2.1-.6-.2-.6z"/></svg>